<?xml version="1.0" encoding="UTF-8"?>
<svg version="1.1" xmlns="http://www.w3.org/2000/svg" width="1024" height="1024">
<path d="M0 0 C337.92 0 675.84 0 1024 0 C1024 337.92 1024 675.84 1024 1024 C686.08 1024 348.16 1024 0 1024 C0 686.08 0 348.16 0 0 Z " fill="#FDFDFD" transform="translate(0,0)"/>
<path d="M0 0 C0.79200893 -0.00205263 1.58401786 -0.00410527 2.40002707 -0.0062201 C5.04626289 -0.01186148 7.69244619 -0.0104364 10.33868694 -0.00901413 C12.2583326 -0.01159942 14.17797772 -0.01461304 16.0976221 -0.01801753 C21.3674033 -0.02607176 26.63717088 -0.02787623 31.90695751 -0.028615 C37.59299036 -0.03046835 43.27901619 -0.03801719 48.96504498 -0.04475021 C61.39726771 -0.05832375 73.82948722 -0.06435698 86.26171613 -0.06876087 C94.02899859 -0.07152545 101.79627981 -0.07576324 109.56356144 -0.08026505 C131.08094542 -0.09245737 152.59832779 -0.10279149 174.11571503 -0.10614014 C175.50643604 -0.10636177 176.89715706 -0.10658355 178.28787808 -0.10680549 C179.68188028 -0.10702613 181.07588249 -0.10724661 182.46988469 -0.10746694 C185.26629595 -0.10790948 188.06270721 -0.1083566 190.85911846 -0.10880661 C191.8991345 -0.1089707 191.8991345 -0.1089707 192.96016096 -0.1091381 C215.42425066 -0.11276591 237.88830803 -0.12867598 260.35238535 -0.15199697 C284.12648288 -0.17663262 307.9005582 -0.19030804 331.67466944 -0.19150805 C344.62464206 -0.19242338 357.57457235 -0.19813966 370.52453327 -0.21632767 C381.55512111 -0.23176557 392.58565354 -0.23682745 403.61625014 -0.22858956 C409.23881613 -0.22469588 414.8612707 -0.22554975 420.48382282 -0.23964691 C425.64292491 -0.25246311 430.80183272 -0.25112116 435.96093484 -0.2390562 C437.8156667 -0.23711246 439.67041269 -0.24011549 441.52512477 -0.24890056 C478.58967613 -0.41317915 511.77861392 11.2520792 538.77537823 37.13142776 C539.59522198 37.88810745 540.41506573 38.64478714 541.25975323 39.42439651 C559.65686165 56.93592984 570.9096354 80.40819393 575.77537823 105.13142776 C575.94953375 106.01311992 576.12368926 106.89481208 576.30312222 107.80322218 C576.85009273 111.65797529 576.91728518 115.43672851 576.9095993 119.32021713 C576.91195153 120.13265682 576.91430376 120.9450965 576.91672727 121.78215557 C576.92339474 124.50996193 576.92295973 127.2377204 576.92254925 129.96553421 C576.92584931 131.93906301 576.92957518 133.91259114 576.93369073 135.88611841 C576.94370328 141.31424682 576.94742635 146.74236418 576.95008004 152.17050052 C576.95398548 158.02363603 576.96356388 163.8767628 576.9722929 169.72989273 C576.99111972 183.20221494 577.0013142 196.67453705 577.00975358 210.14686926 C577.01396374 216.81075837 577.01918537 223.47464661 577.02443811 230.13853497 C577.0423309 252.96841633 577.05732327 275.79829795 577.0647583 298.62818527 C577.06523305 300.06119125 577.06570894 301.49419723 577.06618596 302.92720321 C577.06654053 303.99313011 577.06654053 303.99313011 577.06690225 305.08059089 C577.0681034 308.6807071 577.06931887 312.28082329 577.07054424 315.88093948 C577.07078439 316.5953848 577.07102454 317.30983012 577.07127197 318.0459253 C577.07915527 341.1814468 577.10256572 364.31691688 577.13510019 387.45241595 C577.16946605 411.93516297 577.18911589 436.41787993 577.19240254 460.90065145 C577.19282005 463.5931724 577.1932996 466.28569333 577.19382572 468.97821426 C577.19394891 469.64114734 577.19407211 470.30408041 577.19419903 470.98710236 C577.19637958 480.96126742 577.20971252 490.93537293 577.22886372 500.9095192 C577.25063184 512.27275333 577.25859125 523.6358936 577.24889693 534.99914622 C577.2443695 540.79019879 577.24614733 546.58105795 577.26565838 552.37208366 C577.28341526 557.68875328 577.28219183 563.00509017 577.26676109 568.32176393 C577.26440383 570.23044661 577.26860893 572.13915311 577.28058974 574.04779965 C577.49317398 610.19593238 565.45657535 642.30029803 540.08787823 668.25642776 C514.01944403 693.90589002 479.60806837 705.83387978 443.5408659 705.63263321 C441.57388727 705.63653638 439.60691148 705.64218491 437.63994223 705.64940411 C432.29036912 705.66403055 426.94109423 705.6540545 421.59153116 705.63966739 C415.80072328 705.628488 410.00995488 705.64052308 404.21914959 705.64950943 C392.89715498 705.66339644 381.5752724 705.65591944 370.2532832 705.64083385 C357.72119255 705.62477556 345.18913139 705.62679126 332.65703336 705.63036375 C307.71429065 705.63737496 282.77160746 705.62193939 257.82887989 705.59574029 C235.7054772 705.57262556 213.58213988 705.56723944 191.45872784 705.57747269 C185.79161583 705.58007505 180.12450383 705.58266017 174.45739174 705.58507061 C173.41060936 705.58551678 173.41060936 705.58551678 172.34267986 705.58597197 C153.81375783 705.59359935 135.28484108 705.58716355 116.75592142 705.57637459 C114.09793826 705.57484884 111.4399551 705.57332849 108.78197193 705.57181358 C107.47439303 705.57105577 106.16681413 705.57029795 104.81961162 705.56951718 C95.63008225 705.56478575 86.44056769 705.56661766 77.25103855 705.57087898 C66.0442753 705.57581877 54.8375795 705.5697628 43.63083165 705.54998469 C37.91921078 705.54015104 32.20769234 705.53496495 26.49606609 705.5428772 C21.25725744 705.54998569 16.01865456 705.54300975 10.77987284 705.52527357 C8.89521091 705.52126235 7.01052992 705.52217221 5.12587535 705.52879243 C-9.77821277 705.57662332 -24.84037114 704.59325697 -39.03712177 699.63142776 C-40.11642963 699.26066116 -40.11642963 699.26066116 -41.21754169 698.88240433 C-56.21332509 693.44917266 -70.16666557 685.552484 -82.22462177 675.13142776 C-83.22493427 674.29224808 -84.22524677 673.45306839 -85.25587177 672.58845901 C-108.95503399 652.20908306 -123.99075168 622.46730898 -127.01057291 591.40245807 C-127.49529309 583.99511019 -127.36902186 576.55797445 -127.36506367 569.13779068 C-127.36765005 567.19579492 -127.37066396 565.25379969 -127.37406707 563.31180519 C-127.3821083 557.98953484 -127.38392503 552.667278 -127.38466454 547.34500229 C-127.38652012 541.5990177 -127.39406999 535.85304004 -127.40079975 530.10705948 C-127.4143632 517.54892613 -127.42040471 504.99079598 -127.42481041 492.43265653 C-127.42757623 484.58596368 -127.4318142 476.73927205 -127.43631458 468.89258003 C-127.44850472 447.1520777 -127.45883983 425.41157668 -127.46218967 403.67107105 C-127.4624113 402.26644315 -127.46263309 400.86181525 -127.46285503 399.45718735 C-127.46307566 398.04926743 -127.46329614 396.64134751 -127.46351647 395.23342758 C-127.46395901 392.40914444 -127.46440613 389.5848613 -127.46485615 386.76057816 C-127.46496554 386.06032569 -127.46507493 385.36007322 -127.46518764 384.63860099 C-127.46881629 361.9453685 -127.48473072 339.25216799 -127.50804651 316.55894775 C-127.53268116 292.53795025 -127.5463575 268.51697115 -127.54755759 244.49596065 C-127.54847288 231.41299655 -127.55418845 218.33007434 -127.5723772 205.24712181 C-127.58781357 194.10495932 -127.59287782 182.96285166 -127.5846391 171.82068051 C-127.58074511 166.14139356 -127.58160085 160.46221694 -127.59569645 154.78294373 C-127.60851051 149.57211023 -127.60717254 144.3614691 -127.59510574 139.15063559 C-127.59316166 137.27712113 -127.59616664 135.40359268 -127.6049501 133.53009779 C-127.76624308 96.76475353 -115.57648696 63.78835174 -89.54884052 37.26033401 C-65.94583176 14.39379111 -33.02225818 -0.08084308 0 0 Z " fill="#14306B" transform="translate(287.2246217727661,153.86857223510742)"/>
<path d="M0 0 C0.33 0.66 0.66 1.32 1 2 C0.27832031 3.97680664 0.27832031 3.97680664 -0.921875 6.41015625 C-1.3648291 7.30951904 -1.8077832 8.20888184 -2.26416016 9.13549805 C-2.7544873 10.10140869 -3.24481445 11.06731934 -3.75 12.0625 C-4.24935059 13.05096924 -4.74870117 14.03943848 -5.26318359 15.05786133 C-12.12397879 28.3997307 -20.08276839 40.71426152 -30 52 C-31.10988281 53.27423828 -31.10988281 53.27423828 -32.2421875 54.57421875 C-34.4618356 57.08188348 -36.72205719 59.54528561 -39 62 C-39.63808594 62.71542969 -40.27617188 63.43085938 -40.93359375 64.16796875 C-64.31895491 89.19440788 -102.15118771 105.7331675 -136.31228256 107.09197438 C-138.89980483 107.12519517 -141.48563957 107.12853285 -144.07336426 107.12025452 C-145.06025222 107.12110894 -146.04714019 107.12196337 -147.06393385 107.12284368 C-150.35579234 107.12448484 -153.64759936 107.11899951 -156.93945312 107.11352539 C-159.30513508 107.1132432 -161.67081712 107.11340188 -164.03649902 107.1139679 C-170.4490516 107.11425462 -176.86158545 107.10837803 -183.27413368 107.10139394 C-189.29965515 107.09529453 -195.32517871 107.09477031 -201.3507027 107.09374207 C-213.28133137 107.09155624 -225.21195318 107.0849089 -237.14257812 107.07543945 C-248.72851528 107.06625318 -260.31445056 107.05917829 -271.90039062 107.05493164 C-272.97255635 107.05453756 -272.97255635 107.05453756 -274.06638199 107.05413551 C-277.652394 107.05283042 -281.23840603 107.05156673 -284.82441807 107.05032361 C-314.54961664 107.03996562 -344.27480788 107.02228548 -374 107 C-374.63729954 110.66258157 -375.27447112 114.32518538 -375.91162109 117.98779297 C-376.18002052 119.53027962 -376.18002052 119.53027962 -376.45384216 121.10392761 C-377.44472757 126.80034872 -378.43176542 132.49740462 -379.4140625 138.1953125 C-379.81734812 140.50527125 -380.22097906 142.81516975 -380.625 145.125 C-380.93050781 146.90970703 -380.93050781 146.90970703 -381.2421875 148.73046875 C-381.44328125 149.87386719 -381.644375 151.01726562 -381.8515625 152.1953125 C-382.02510254 153.19578613 -382.19864258 154.19625977 -382.37744141 155.22705078 C-383.00469251 158.020901 -383.70519054 160.44332643 -385 163 C-387.95703125 163.96875 -387.95703125 163.96875 -391.8125 164.5 C-393.2858649 164.73385948 -394.75849705 164.97236964 -396.23046875 165.21484375 C-397.01212402 165.33972168 -397.7937793 165.46459961 -398.59912109 165.59326172 C-431.38650322 171.14784568 -462.87570701 184.14549211 -491.95141602 199.90600586 C-493.95085301 200.9737543 -495.96798729 201.99586254 -498 203 C-495.20687084 186.95077786 -492.24554184 170.94355724 -489.11331177 154.9574585 C-487.11777661 144.77222114 -485.1530134 134.58245499 -483.24975586 124.37954712 C-482.87760586 122.38893859 -482.50267862 120.39887203 -482.12695312 118.40893555 C-480.96164295 112.22075008 -479.82565998 106.03068524 -478.76171875 99.82421875 C-475.73881304 82.53590148 -471.47003453 67.35328678 -461 53 C-460.55398438 52.3709375 -460.10796875 51.741875 -459.6484375 51.09375 C-446.81684964 34.58527439 -424.84423327 26.44704431 -404.83589935 23.61311531 C-393.54281165 22.26363279 -382.11090755 22.57198649 -370.75449848 22.59657824 C-366.98610026 22.60138023 -363.21775244 22.58869911 -359.44937134 22.57821655 C-352.93723359 22.56234091 -346.42515787 22.55695593 -339.91300201 22.55874443 C-330.47284331 22.56114524 -321.0327823 22.54503629 -311.59264931 22.52429188 C-296.23820567 22.49086212 -280.88377084 22.46913966 -265.52929688 22.45629883 C-264.15485567 22.45514459 -264.15485567 22.45514459 -262.75264797 22.45396704 C-259.04088444 22.4508653 -255.32912089 22.44778249 -251.61735733 22.444727 C-241.40896519 22.43620147 -231.20057615 22.4252966 -220.9921875 22.41333008 C-220.0782409 22.41226206 -219.1642943 22.41119404 -218.22265235 22.41009366 C-202.92494823 22.3919335 -187.62726487 22.36590483 -172.32958102 22.33519894 C-162.92590614 22.31676415 -153.52227807 22.30573663 -144.11858484 22.30467702 C-137.66397673 22.30356441 -131.20940062 22.29552383 -124.75480607 22.28229337 C-121.04556522 22.27495636 -117.33639442 22.27070931 -113.62714767 22.27541161 C-92.38027768 22.29943279 -71.01540622 22.26149177 -50.25 17.25 C-48.55725952 16.85530518 -48.55725952 16.85530518 -46.83032227 16.45263672 C-30.4221774 12.53744092 -15.25627762 7.18156915 0 0 Z " fill="#FCFCFD" transform="translate(815,271)"/>
<path d="M0 0 C0.33 0.66 0.66 1.32 1 2 C0.33837891 3.74902344 0.33837891 3.74902344 -0.7734375 5.859375 C-1.18126465 6.63812988 -1.5890918 7.41688477 -2.00927734 8.21923828 C-2.68531006 9.47196533 -2.68531006 9.47196533 -3.375 10.75 C-3.83471191 11.60964355 -4.29442383 12.46928711 -4.76806641 13.35498047 C-8.81329167 20.82619287 -13.20402834 27.98890778 -18 35 C-18.45632813 35.67272949 -18.91265625 36.34545898 -19.3828125 37.03857422 C-26.06838702 46.85466007 -33.163182 56.08137406 -41 65 C-41.56589844 65.67675781 -42.13179687 66.35351562 -42.71484375 67.05078125 C-52.0022536 78.08696547 -62.59504665 88.1967505 -74 97 C-74.99128906 97.79664063 -75.98257812 98.59328125 -77.00390625 99.4140625 C-88.23535354 108.37654816 -100.32053047 115.70749428 -113 122.4375 C-113.77682129 122.85064453 -114.55364258 123.26378906 -115.35400391 123.68945312 C-119.55376536 125.87466549 -123.73988811 127.73895583 -128.19580078 129.33618164 C-130.67882942 130.24976146 -133.0485901 131.3655405 -135.4375 132.5 C-144.02794236 136.4421893 -152.95452461 138.91971062 -162.04640198 141.45477295 C-163.85274288 141.95890221 -165.65798929 142.46694869 -167.46313477 142.9753418 C-176.34376897 145.41792953 -185.22996606 147.31611798 -194.3125 148.875 C-195.38223053 149.0620903 -195.38223053 149.0620903 -196.47357178 149.25296021 C-208.82189721 151.40889648 -221.21053671 153.21013088 -233.625 154.9375 C-279.08808517 161.27815868 -325.63468082 168.39407137 -368.61425781 185.07470703 C-370.22331166 185.69876701 -371.83471255 186.31680454 -373.44824219 186.92919922 C-415.83387352 203.01772398 -454.70961989 228.34369062 -482 265 C-482.43054688 265.56976562 -482.86109375 266.13953125 -483.3046875 266.7265625 C-499.59084323 288.34273283 -511.722202 313.37952765 -517 340 C-519.78387249 337.63799901 -520.55545038 335.78672285 -521.31640625 332.24609375 C-521.62674805 330.8394043 -521.62674805 330.8394043 -521.94335938 329.40429688 C-522.14767578 328.42525391 -522.35199219 327.44621094 -522.5625 326.4375 C-522.87477539 325.00954102 -522.87477539 325.00954102 -523.19335938 323.55273438 C-523.81175945 320.70499231 -524.40818919 317.85337356 -525 315 C-525.18401367 314.14059814 -525.36802734 313.28119629 -525.55761719 312.39575195 C-534.16223732 271.29146558 -529.30138765 225.37981391 -506.41796875 189.5625 C-470.31373344 135.27938702 -404.5162834 108.97705745 -342.86328125 96.5234375 C-337.50845432 95.47572167 -332.14486473 94.48174496 -326.77539062 93.51220703 C-324.20669883 93.03814692 -321.648556 92.52878356 -319.08984375 92.00390625 C-298.65940287 87.89032683 -277.94128672 85.41860515 -257.25 83.0625 C-255.59777435 82.87426163 -255.59777435 82.87426163 -253.91217041 82.68222046 C-243.70465869 81.52272569 -233.49501517 80.38270009 -223.28320312 79.26171875 C-200.09971403 76.71569773 -176.97311164 74.05132639 -153.9375 70.375 C-153.05368652 70.23474396 -152.16987305 70.09448792 -151.25927734 69.94998169 C-134.62537019 67.28873677 -118.07406264 64.31314132 -102 59.1875 C-100.34955688 58.66820923 -100.34955688 58.66820923 -98.66577148 58.13842773 C-66.81607642 48.00517081 -37.43959425 34.14059816 -11.9375 12.25 C-11.31794434 11.71914795 -10.69838867 11.1882959 -10.06005859 10.64135742 C-6.30587734 7.34937953 -3.10038031 3.915036 0 0 Z " fill="#2493F0" transform="translate(782,353)"/>
<path d="M0 0 C-7.49690439 23.70909735 -17.73033454 50.19909236 -33 70 C-33.71671875 70.94617188 -34.4334375 71.89234375 -35.171875 72.8671875 C-45.49803878 86.00634073 -58.61164307 96.5801761 -75 101 C-75.88499207 101.25075444 -75.88499207 101.25075444 -76.78786278 101.50657463 C-85.89391174 103.71784315 -95.19013459 103.26443396 -104.49462891 103.22705078 C-106.46652216 103.22648599 -108.43841583 103.22680456 -110.41030884 103.22793579 C-115.74016243 103.22850764 -121.06992528 103.21678054 -126.39975786 103.20278788 C-131.97844509 103.19025249 -137.5571346 103.18910781 -143.13583374 103.18673706 C-153.68947894 103.18053054 -164.24308251 103.16413092 -174.79670942 103.14403808 C-186.81605385 103.12165331 -198.83540031 103.11067917 -210.85476041 103.10064721 C-235.56986332 103.07976396 -260.28492932 103.0446041 -285 103 C-285.06433605 103.73823848 -285.1286721 104.47647696 -285.19495773 105.2370863 C-285.28166355 106.21460511 -285.36836937 107.19212393 -285.45770264 108.19926453 C-285.58514421 109.64693474 -285.58514421 109.64693474 -285.71516037 111.12385082 C-286.13130979 115.32589182 -286.77416172 119.47819038 -287.453125 123.64453125 C-287.59354721 124.52497101 -287.73396942 125.40541077 -287.87864685 126.31253052 C-288.33178537 129.14650964 -288.79046467 131.97955162 -289.25 134.8125 C-289.56758074 136.78131258 -289.88504391 138.75014414 -290.20239258 140.71899414 C-290.83592934 144.6447427 -291.47217915 148.5700404 -292.10986328 152.49511719 C-292.7845827 156.65509155 -293.44698771 160.81680917 -294.1000061 164.98023987 C-294.42427692 167.04231572 -294.75271097 169.10367646 -295.08300781 171.16479492 C-295.47049953 173.58317515 -295.85191489 176.00254148 -296.22558594 178.4230957 C-298.85022717 194.537867 -303.42162351 209.61201557 -317.140625 219.55078125 C-331.41687537 228.69798141 -347.10209147 231.82391672 -363.45263672 235.24560547 C-369.10950559 236.44861475 -374.74191406 237.75334039 -380.375 239.0625 C-381.43968506 239.30822754 -382.50437012 239.55395508 -383.60131836 239.80712891 C-388.79273247 241.00842811 -393.97807802 242.23108084 -399.15625 243.48828125 C-400.12256348 243.72216553 -401.08887695 243.9560498 -402.08447266 244.19702148 C-403.89247774 244.63628921 -405.69951676 245.07956036 -407.50537109 245.52758789 C-408.30539551 245.72215576 -409.10541992 245.91672363 -409.9296875 246.1171875 C-410.62304199 246.28847168 -411.31639648 246.45975586 -412.03076172 246.63623047 C-414 247 -414 247 -418 247 C-415.63263952 230.92149968 -412.98528023 214.91013969 -410.10693359 198.91650391 C-407.4158985 184.43483804 -407.4158985 184.43483804 -405.60546875 169.828125 C-404.17641437 157.59435109 -398.00094983 150.04023064 -390 141 C-389.42266113 140.34128906 -388.84532227 139.68257812 -388.25048828 139.00390625 C-382.24650427 132.20862005 -376.06760717 125.70047072 -369 120 C-367.90217952 119.09004185 -366.80454106 118.17986407 -365.70703125 117.26953125 C-299.28256238 62.65913491 -210.76337259 50.32636912 -128.49716187 37.54467773 C-85.63534401 30.86901366 -43.33209885 23.13996165 -5.03515625 1.6171875 C-2 0 -2 0 0 0 Z " fill="#F1F4F8" transform="translate(698,483)"/>
<path d="M0 0 C0.66 0.33 1.32 0.66 2 1 C0.1875 3.5 0.1875 3.5 -2 6 C-2.99 6 -3.98 6 -5 6 C-5 6.66 -5 7.32 -5 8 C-7.51953125 9.7265625 -7.51953125 9.7265625 -10.8125 11.625 C-11.89144531 12.25664062 -12.97039062 12.88828125 -14.08203125 13.5390625 C-17 15 -17 15 -20 15 C-20 15.66 -20 16.32 -20 17 C-41.42845939 28.58188324 -41.42845939 28.58188324 -51.015625 31.8046875 C-53.49801629 32.7989437 -55.38796483 33.83988032 -57.640625 35.2265625 C-65.35421587 39.60102702 -74.08776703 41.83823262 -82.5 44.5 C-84.24245228 45.06037525 -85.98464188 45.62156799 -87.7265625 46.18359375 C-118.00968513 55.91718762 -118.00968513 55.91718762 -130.125 58.0625 C-135.99398496 59.16772776 -141.74639874 60.39623045 -147.5 62 C-153.9590605 63.78876999 -160.44447446 65.14955811 -167.02197266 66.42749023 C-176.55393805 68.28318329 -186.03158122 70.37566932 -195.51611328 72.45800781 C-198.61165882 73.13346595 -201.7118456 73.78594098 -204.8125 74.4375 C-244.97501471 83.07147055 -284.32436694 94.46189717 -322 111 C-322.93295898 111.40927734 -323.86591797 111.81855469 -324.82714844 112.24023438 C-365.1453265 130.16904825 -404.2774419 157.61605004 -430 194 C-430.42039551 194.59200195 -430.84079102 195.18400391 -431.27392578 195.79394531 C-447.53512622 218.92944998 -460.9919503 244.97059515 -466 273 C-466.33 273 -466.66 273 -467 273 C-471.95582594 236.00829923 -462.60847889 199.88969711 -446 167 C-445.34 167 -444.68 167 -444 167 C-443.71125 166.278125 -443.4225 165.55625 -443.125 164.8125 C-442.08333333 162.20833333 -441.04166667 159.60416667 -440 157 C-439.34 157 -438.68 157 -438 157 C-437.60941406 156.16275391 -437.60941406 156.16275391 -437.2109375 155.30859375 C-432.56487311 146.4510968 -425.57518191 139.15940129 -418.76171875 131.953125 C-416.63936625 129.70651298 -414.63481822 127.40151845 -412.6875 125 C-410.32031899 122.17058837 -407.69568712 120.1530463 -404.61328125 118.140625 C-402.8702082 116.90823437 -401.48359016 115.5313196 -400 114 C-396.10285427 110.56680019 -392.0746019 107.62474037 -387.7265625 104.7890625 C-385.68451311 103.44915043 -383.6628453 102.09124279 -381.6484375 100.7109375 C-368.99559042 92.0752717 -355.90836588 84.80781058 -342.125 78.125 C-340.69897461 77.4280603 -340.69897461 77.4280603 -339.24414062 76.71704102 C-333.28733239 73.87737275 -327.37949462 71.69067879 -321 70 C-320.67 68.35 -320.34 66.7 -320 65 C-320.56847656 65.34933594 -321.13695312 65.69867188 -321.72265625 66.05859375 C-326.55717284 68.90764944 -330.31127877 70.57861324 -336 71 C-342.18283469 71.57350309 -347.45248812 73.44850265 -353.1875 75.6875 C-354.11643066 76.04545654 -355.04536133 76.40341309 -356.00244141 76.7722168 C-362.0642824 79.14417255 -367.88223859 81.73802891 -373.64453125 84.76953125 C-376 86 -376 86 -379.5625 87.5 C-387.95404857 91.16176665 -395.77147814 96.00307699 -403.56640625 100.77734375 C-404.36949219 101.18082031 -405.17257812 101.58429688 -406 102 C-406.99 101.505 -406.99 101.505 -408 101 C-369.01916451 74.21940791 -322.84408612 60.83059109 -276.77539062 52.51220703 C-274.20669883 52.03814692 -271.648556 51.52878356 -269.08984375 51.00390625 C-248.65940287 46.89032683 -227.94128672 44.41860515 -207.25 42.0625 C-206.14851624 41.93700775 -205.04703247 41.8115155 -203.91217041 41.68222046 C-193.70465869 40.52272569 -183.49501517 39.38270009 -173.28320312 38.26171875 C-150.09971403 35.71569773 -126.97311164 33.05132639 -103.9375 29.375 C-103.05368652 29.23474396 -102.16987305 29.09448792 -101.25927734 28.94998169 C-84.62494601 26.2886689 -68.07491072 23.31154673 -52 18.1875 C-50.35825806 17.67255981 -50.35825806 17.67255981 -48.68334961 17.1472168 C-35.94391059 13.1035263 -23.17465793 8.89954172 -11.2265625 2.84765625 C-8.67879025 1.87771488 -6.70419167 1.92800821 -4 2 C-2.65909241 1.34870203 -1.32407669 0.68486725 0 0 Z " fill="#63DAFC" transform="translate(732,394)"/>
<path d="M0 0 C0.99 0.99 0.99 0.99 2 2 C-0.97805278 2.65135437 -3.95728259 3.29618739 -6.9375 3.9375 C-7.76830078 4.11990234 -8.59910156 4.30230469 -9.45507812 4.49023438 C-14.30398602 5.5279384 -19.05368224 6.300358 -24.00048828 6.67675781 C-26.24029943 7.03884694 -27.92274833 7.78462524 -29.9375 8.8125 C-37.10170008 12.31756563 -45.23742381 13.4257127 -53 15 C-53 14.34 -53 13.68 -53 13 C-53.56847656 13.34933594 -54.13695312 13.69867188 -54.72265625 14.05859375 C-59.55717284 16.90764944 -63.31127877 18.57861324 -69 19 C-75.18283469 19.57350309 -80.45248812 21.44850265 -86.1875 23.6875 C-87.11643066 24.04545654 -88.04536133 24.40341309 -89.00244141 24.7722168 C-95.0642824 27.14417255 -100.88223859 29.73802891 -106.64453125 32.76953125 C-109 34 -109 34 -112.5625 35.5 C-120.95404857 39.16176665 -128.77147814 44.00307699 -136.56640625 48.77734375 C-137.36949219 49.18082031 -138.17257812 49.58429688 -139 50 C-139.66 49.67 -140.32 49.34 -141 49 C-104.66174017 24.03490878 -61.67237577 10.46273546 -18.75 2.0625 C-17.67314941 1.85085205 -16.59629883 1.6392041 -15.48681641 1.42114258 C-10.27287635 0.44555351 -5.30615881 -0.46608152 0 0 Z " fill="#7CD8F0" transform="translate(465,446)"/>
<path d="M0 0 C0.66 0.33 1.32 0.66 2 1 C-2.79729339 6.0534273 -7.85770788 10.39900075 -13.4375 14.5625 C-14.14970703 15.10068359 -14.86191406 15.63886719 -15.59570312 16.19335938 C-17.72618056 17.8013764 -19.86235893 19.40152222 -22 21 C-23.51183678 22.13395724 -25.02356078 23.26806487 -26.53515625 24.40234375 C-27.69006542 25.26828085 -28.84499817 26.1341865 -30 27 C-30.66 26.67 -31.32 26.34 -32 26 C-31.34 25.01 -30.68 24.02 -30 23 C-31.98 23.66 -33.96 24.32 -36 25 C-36.33 24.34 -36.66 23.68 -37 23 C-36.4831665 22.72961914 -35.96633301 22.45923828 -35.43383789 22.18066406 C-22.95001551 15.60312178 -11.33020372 8.40959421 0 0 Z " fill="#359CF2" transform="translate(762,372)"/>
<path d="M0 0 C0.66 0.66 1.32 1.32 2 2 C-0.97805278 2.65135437 -3.95728259 3.29618739 -6.9375 3.9375 C-7.76830078 4.11990234 -8.59910156 4.30230469 -9.45507812 4.49023438 C-13.58038985 5.37308319 -17.62106121 6.10537518 -21.82421875 6.4921875 C-25.24070332 6.83026341 -27.81786823 7.54695127 -30.875 9.1875 C-33.0546875 10.35546875 -33.0546875 10.35546875 -35 11 C-35.99 10.34 -36.98 9.68 -38 9 C-37.360625 8.896875 -36.72125 8.79375 -36.0625 8.6875 C-35.0415625 8.3471875 -35.0415625 8.3471875 -34 8 C-33.67 7.01 -33.34 6.02 -33 5 C-28.81461028 4.15582741 -24.6263911 3.32660784 -20.4375 2.5 C-18.66536133 2.14228516 -18.66536133 2.14228516 -16.85742188 1.77734375 C-5.14384995 -0.51943506 -5.14384995 -0.51943506 0 0 Z " fill="#8AE7F9" transform="translate(465,446)"/>
<path d="M0 0 C0.66 0.33 1.32 0.66 2 1 C0.74896484 2.21623047 0.74896484 2.21623047 -0.52734375 3.45703125 C-6.8323536 9.64369889 -12.73229974 15.82180561 -18.09765625 22.85546875 C-19.97782806 24.97500535 -21.39390671 25.96104522 -24 27 C-20.40057281 20.67529222 -15.81833065 15.41486157 -10.875 10.125 C-10.2651123 9.47072021 -9.65522461 8.81644043 -9.02685547 8.14233398 C-6.18704663 5.1436357 -3.44737633 2.31540201 0 0 Z " fill="#CBD8E8" transform="translate(325,607)"/>
<path d="M0 0 C0.495 0.99 0.495 0.99 1 2 C-2.94309682 4.33366955 -6.76545222 6.3457664 -11.00390625 8.1015625 C-18.86049312 11.63779534 -26.23277817 16.28561576 -33.56640625 20.77734375 C-34.36949219 21.18082031 -35.17257812 21.58429688 -36 22 C-36.66 21.67 -37.32 21.34 -38 21 C-31.51111963 16.49634347 -24.82306672 12.56217486 -17.875 8.8125 C-16.92496094 8.29236328 -15.97492188 7.77222656 -14.99609375 7.23632812 C-10.07926591 4.56651106 -5.19009868 2.09185418 0 0 Z " fill="#59C9EB" transform="translate(362,474)"/>
<path d="M0 0 C0.66 0.33 1.32 0.66 2 1 C-2.78071978 6.05298541 -7.82211675 10.34284268 -13.4375 14.4375 C-14.53481445 15.24864258 -14.53481445 15.24864258 -15.65429688 16.07617188 C-17.43240281 17.38941351 -19.21423482 18.69720386 -21 20 C-21.66 19.67 -22.32 19.34 -23 19 C-21.54634731 17.82750647 -20.08692581 16.66216184 -18.625 15.5 C-17.81289063 14.8503125 -17.00078125 14.200625 -16.1640625 13.53125 C-14 12 -14 12 -12 12 C-11.94972656 11.42765625 -11.89945313 10.8553125 -11.84765625 10.265625 C-10.59308576 6.91239513 -8.34735547 5.75679687 -5.4375 3.75 C-4.42558594 3.04359375 -3.41367187 2.3371875 -2.37109375 1.609375 C-1.58863281 1.07828125 -0.80617188 0.5471875 0 0 Z " fill="#3AA1F0" transform="translate(762,372)"/>
<path d="M0 0 C0.66 0.99 1.32 1.98 2 3 C1.70222656 3.52851562 1.40445312 4.05703125 1.09765625 4.6015625 C-0.22095879 7.48280676 -0.87412966 10.28273952 -1.5625 13.375 C-1.81128906 14.47585938 -2.06007813 15.57671875 -2.31640625 16.7109375 C-2.95812467 19.79851983 -3.5060424 22.88571492 -4 26 C-4.66 26 -5.32 26 -6 26 C-4.47642961 5.27142394 -4.47642961 5.27142394 0 0 Z " fill="#B0C0D7" transform="translate(298,637)"/>
<path d="M0 0 C0.33 0 0.66 0 1 0 C1 4.62 1 9.24 1 14 C1.66 14 2.32 14 3 14 C3.33 12.35 3.66 10.7 4 9 C5.04940487 12.14821462 4.98606526 12.9349491 4.22265625 16.01171875 C4.03896484 16.76904297 3.85527344 17.52636719 3.66601562 18.30664062 C3.46685547 19.09232422 3.26769531 19.87800781 3.0625 20.6875 C2.86720703 21.48478516 2.67191406 22.28207031 2.47070312 23.10351562 C1.98771618 25.07080389 1.4948037 27.03565054 1 29 C0.67 29 0.34 29 0 29 C0 19.43 0 9.86 0 0 Z " fill="#59EFFE" transform="translate(265,638)"/>
<path d="M0 0 C0.33 0 0.66 0 1 0 C1 5.61 1 11.22 1 17 C4.96 16.505 4.96 16.505 9 16 C9.33 16.66 9.66 17.32 10 18 C8.58461283 18.33872513 7.16762037 18.67074624 5.75 19 C4.96109375 19.185625 4.1721875 19.37125 3.359375 19.5625 C1 20 1 20 -3 20 C-2.01 13.4 -1.02 6.8 0 0 Z " fill="#C3D1E4" transform="translate(283,710)"/>
<path d="M0 0 C0.66 0.33 1.32 0.66 2 1 C-5 8 -12 15 -19 22 C-19 17.83991091 -17.29799047 16.76711021 -14.5 13.75 C-14.05019775 13.26418457 -13.60039551 12.77836914 -13.13696289 12.27783203 C-9.32880932 8.2216275 -5.27556532 4.54994718 -1 1 C-0.67 0.67 -0.34 0.34 0 0 Z " fill="#45BEEE" transform="translate(307,507)"/>
<path d="M0 0 C0.33 0.66 0.66 1.32 1 2 C0.22729492 3.95532227 0.22729492 3.95532227 -1.01953125 6.31640625 C-1.46490234 7.16267578 -1.91027344 8.00894531 -2.36914062 8.88085938 C-2.84544922 9.76580078 -3.32175781 10.65074219 -3.8125 11.5625 C-4.27720703 12.45130859 -4.74191406 13.34011719 -5.22070312 14.25585938 C-8.73611201 20.86805601 -8.73611201 20.86805601 -11 22 C-10.52269162 20.5410574 -10.04308958 19.08286504 -9.5625 17.625 C-9.29566406 16.81289063 -9.02882813 16.00078125 -8.75390625 15.1640625 C-8 13 -8 13 -7 11 C-7.66 10.67 -8.32 10.34 -9 10 C-8.27683594 9.29423828 -8.27683594 9.29423828 -7.5390625 8.57421875 C-6.90742187 7.95160156 -6.27578125 7.32898438 -5.625 6.6875 C-4.68527344 5.76517578 -4.68527344 5.76517578 -3.7265625 4.82421875 C-1.81913393 2.91187472 -1.81913393 2.91187472 0 0 Z " fill="#166BDC" transform="translate(782,353)"/>
<path d="M0 0 C-1 3 -1 3 -2.9609375 4.23828125 C-4.15589844 4.77001953 -4.15589844 4.77001953 -5.375 5.3125 C-6.16648437 5.67988281 -6.95796875 6.04726563 -7.7734375 6.42578125 C-8.50820313 6.61527344 -9.24296875 6.80476563 -10 7 C-10.99 6.34 -11.98 5.68 -13 5 C-12.360625 4.896875 -11.72125 4.79375 -11.0625 4.6875 C-10.381875 4.460625 -9.70125 4.23375 -9 4 C-8.67 3.01 -8.34 2.02 -8 1 C-5.23735711 0.40267181 -2.83967231 0 0 0 Z " fill="#81E7FB" transform="translate(440,450)"/>
<path d="M0 0 C2.3151437 3.47271555 2.25453763 4.92739797 2 9 C1.67 9.99 1.34 10.98 1 12 C0.65179959 13.66362417 0.31595508 15.32995171 0 17 C-0.66 17 -1.32 17 -2 17 C-1.03644647 5.47835991 -1.03644647 5.47835991 0 0 Z " fill="#C1D1E5" transform="translate(286,692)"/>
<path d="M0 0 C0.99 0.33 1.98 0.66 3 1 C0.03 4.3 -2.94 7.6 -6 11 C-6.66 10.67 -7.32 10.34 -8 10 C-5.36 6.7 -2.72 3.4 0 0 Z " fill="#C0D2E6" transform="translate(309,623)"/>
<path d="M0 0 C0.33 0.99 0.66 1.98 1 3 C-0.43011973 3.86646667 -1.86940619 4.71781829 -3.3125 5.5625 C-4.51326172 6.27599609 -4.51326172 6.27599609 -5.73828125 7.00390625 C-8 8 -8 8 -11 7 C-7.54319097 4.23455278 -3.85658398 2.15078722 0 0 Z " fill="#2F92E8" transform="translate(736,389)"/>
<path d="M0 0 C1.32 0.33 2.64 0.66 4 1 C2.25707481 2.4874965 0.50538246 3.96472492 -1.25 5.4375 C-2.22453125 6.26121094 -3.1990625 7.08492188 -4.203125 7.93359375 C-6.6595827 9.74849057 -8.03384097 10.61157441 -11 11 C-5.35475578 5.19794344 -5.35475578 5.19794344 -2 3 C-1.34 3 -0.68 3 0 3 C0 2.01 0 1.02 0 0 Z " fill="#41ABFB" transform="translate(750,381)"/>
<path d="M0 0 C-4.03923713 2.69282475 -6.95536152 3.13300939 -11.75 3.0625 C-12.54921875 3.05347656 -13.3484375 3.04445313 -14.171875 3.03515625 C-14.77515625 3.02355469 -15.3784375 3.01195312 -16 3 C-11.918638 -1.081362 -5.43630843 -0.09372946 0 0 Z " fill="#85E1F6" transform="translate(482,443)"/>
<path d="M0 0 C-3.95523655 2.75668002 -7.22423661 3.5317879 -12 4 C-8.66437635 0.13769893 -4.98576775 -1.84658065 0 0 Z " fill="#73E2FB" transform="translate(408,461)"/>
<path d="M0 0 C0.99 0.33 1.98 0.66 3 1 C-0.12621626 4.39417765 -2.56541027 6.6062718 -7 8 C-6.21366078 6.85050412 -5.42073742 5.70551011 -4.625 4.5625 C-4.18414063 3.92441406 -3.74328125 3.28632813 -3.2890625 2.62890625 C-2 1 -2 1 0 0 Z " fill="#3CA0F9" transform="translate(737,391)"/>
<path d="M0 0 C0.66 0 1.32 0 2 0 C1.34 4.29 0.68 8.58 0 13 C-0.33 13 -0.66 13 -1 13 C-1.02696365 11.20841511 -1.04637917 9.41671527 -1.0625 7.625 C-1.07410156 6.62726562 -1.08570313 5.62953125 -1.09765625 4.6015625 C-1 2 -1 2 0 0 Z " fill="#52DFFD" transform="translate(266,654)"/>
<path d="M0 0 C0.99 0.33 1.98 0.66 3 1 C0.36 2.98 -2.28 4.96 -5 7 C-5.66 6.67 -6.32 6.34 -7 6 C-5.90716423 4.96704564 -4.80029421 3.94892165 -3.6875 2.9375 C-3.07261719 2.36902344 -2.45773437 1.80054688 -1.82421875 1.21484375 C-0.92123047 0.61349609 -0.92123047 0.61349609 0 0 Z " fill="#132554" transform="translate(385,698)"/>
<path d="M0 0 C1.53690745 2.41040161 2.09752136 3.50082285 1.5390625 6.359375 C1.23742187 7.14828125 0.93578125 7.9371875 0.625 8.75 C0.32851563 9.54921875 0.03203125 10.3484375 -0.2734375 11.171875 C-0.51320313 11.77515625 -0.75296875 12.3784375 -1 13 C-2.07310858 9.72814447 -1.89263102 7.57052408 -1.0625 4.25 C-0.86785156 3.45078125 -0.67320312 2.6515625 -0.47265625 1.828125 C-0.31667969 1.22484375 -0.16070312 0.6215625 0 0 Z " fill="#BDCEE4" transform="translate(291,667)"/>
<path d="M0 0 C0.33 0 0.66 0 1 0 C1 3.3 1 6.6 1 10 C0.01 10 -0.98 10 -2 10 C-1.85950482 8.52031676 -1.71245174 7.04125484 -1.5625 5.5625 C-1.48128906 4.73878906 -1.40007812 3.91507812 -1.31640625 3.06640625 C-1 1 -1 1 0 0 Z " fill="#223669" transform="translate(434,417)"/>
<path d="M0 0 C0.66 0.99 1.32 1.98 2 3 C1 5 0 7 -1 9 C-1.66 9 -2.32 9 -3 9 C-3.26218749 5.85375007 -3.24754367 4.38162983 -1.5 1.6875 C-1.005 1.130625 -0.51 0.57375 0 0 Z " fill="#B7C7DF" transform="translate(298,637)"/>
<path d="M0 0 C0.66 0.33 1.32 0.66 2 1 C1.7834375 2.0209375 1.7834375 2.0209375 1.5625 3.0625 C0.93054091 6.36273082 0.45686059 9.67144426 0 13 C-0.33 13 -0.66 13 -1 13 C-1.0272415 11.58344207 -1.04650467 10.16672955 -1.0625 8.75 C-1.07410156 7.96109375 -1.08570313 7.1721875 -1.09765625 6.359375 C-1.00385306 4.09308998 -0.63241063 2.1711105 0 0 Z " fill="#0B1D51" transform="translate(404,645)"/>
<path d="M0 0 C-0.33 0.99 -0.66 1.98 -1 3 C-2.98 3.33 -4.96 3.66 -7 4 C-7.33 3.01 -7.66 2.02 -8 1 C-5.23735711 0.40267181 -2.83967231 0 0 0 Z " fill="#85DBF0" transform="translate(440,450)"/>
<path d="M0 0 C0.66 0.33 1.32 0.66 2 1 C-1.01887244 4.48331435 -3.56909529 5.79157144 -8 7 C-5.42215154 4.35247996 -3.08351902 2.05567935 0 0 Z " fill="#52C6EE" transform="translate(322,496)"/>
<path d="M0 0 C0.66 0 1.32 0 2 0 C1.67 1.65 1.34 3.3 1 5 C0.34 5 -0.32 5 -1 5 C-1.66 6.32 -2.32 7.64 -3 9 C-2.44271087 5.65626525 -1.64826111 2.96687001 0 0 Z " fill="#16295F" transform="translate(675,535)"/>
</svg>
